<?xml version="1.0" encoding="UTF-8"?>
<svg xmlns="http://www.w3.org/2000/svg" version="1.1" viewBox="0 0 1643.4 621.3">
  <!-- Generator: Adobe Illustrator 28.7.1, SVG Export Plug-In . SVG Version: 1.2.0 Build 142)  -->
  <g>
    <g id="Layer_1">
      <g>
        <g>
          <rect x="67.8" y="115.6" width="57.6" height="390"/>
          <rect x="172.1" y="50.3" width="57.6" height="520.7"/>
          <rect x="485" y="115.6" width="57.6" height="390" transform="translate(1027.5 621.3) rotate(180)"/>
          <rect x="380.7" y="50.3" width="57.6" height="520.7" transform="translate(818.9 621.3) rotate(180)"/>
          <g>
            <rect x="276.4" y="16.6" width="57.6" height="275.8"/>
            <rect x="276.4" y="336.7" width="57.6" height="268"/>
          </g>
        </g>
        <g>
          <path d="M583.1,359.2v-97.1h34.8c8.1,0,15.1,1.3,21,3.9,5.8,2.6,10.3,6.3,13.5,11.2,3.1,4.9,4.7,10.8,4.7,17.7s-1.6,12.6-4.7,17.4c-3.1,4.9-7.6,8.6-13.5,11.2-5.8,2.6-12.8,4-21,4h-30.9l3.2-3.3v35.1h-7.1ZM590.1,324.5l-3.2-3.3h30.9c10.5,0,18.4-2.3,23.8-6.9,5.4-4.6,8.1-11.1,8.1-19.4s-2.7-14.9-8.1-19.5c-5.4-4.6-13.3-6.9-23.8-6.9h-30.9l3.2-3.5v59.5ZM650.5,359.2l-25.3-35.2h8l25.3,35.2h-8Z"/>
          <path d="M666.7,359.2l44.7-97.1h7.1l44.7,97.1h-7.6l-42.2-92.7h3.1l-42,92.7h-7.6ZM683.1,331.9l2.4-6h58.1l2.4,6h-62.9Z"/>
          <path d="M780.8,359.2v-97.1h6l45.1,77.8h-3.2l45-77.8h5.8v97.1c.1,0-6.8,0-6.8,0v-86.5c-.1,0,1.8,0,1.8,0l-42.6,73.5h-3.5l-42.7-73.5h2.1v86.5h-6.9Z"/>
          <path d="M913.5,359.2v-97.1h7.1v97.1h-7.1Z"/>
          <path d="M954.4,359.2v-97.1h6l69.2,88.4h-3.2v-88.4h7.1v97.1h-5.8l-69.4-88.4h3.2v88.4h-7.1Z"/>
          <path d="M1112.2,359.2h-10.3v-97.1h10.3v97.1ZM1173.9,314.4h-62.9v-9h62.9v9ZM1172.9,262.1h10.1v97.1h-10.1v-97.1Z"/>
          <path d="M1199.2,359.2l44.4-97.1h10.1l44.4,97.1h-10.8l-40.8-91.2h4.2l-40.8,91.2h-10.7ZM1216.7,333.3l3.1-8.3h56.5l3.1,8.3h-62.6Z"/>
          <path d="M1314.2,359.2v-97.1h41.9c10.8,0,19.2,2.2,25.2,6.5s9,10.5,9,18.5-1.2,9.7-3.7,13.3c-2.5,3.6-5.8,6.3-10,8.2s-8.8,2.8-13.8,2.8l2.4-3.3c6.2,0,11.5.9,16,2.8,4.5,1.9,8,4.7,10.5,8.5,2.5,3.7,3.7,8.4,3.7,13.9,0,8.2-3,14.6-9.1,19.1-6.1,4.5-15.2,6.8-27.4,6.8h-44.7ZM1324.5,350.8h34.3c8.5,0,15-1.5,19.6-4.4,4.5-2.9,6.8-7.6,6.8-13.9s-2.3-10.9-6.8-13.8c-4.5-2.9-11.1-4.4-19.6-4.4h-35.4v-8.5h32.1c7.8,0,13.8-1.5,18.1-4.4,4.3-3,6.5-7.4,6.5-13.2s-2.2-10.3-6.5-13.3c-4.3-2.9-10.3-4.4-18.1-4.4h-30.9v80.2Z"/>
          <path d="M1418.8,359.2v-97.1h10.3v97.1h-10.3Z"/>
          <path d="M1460.7,359.2v-97.1h41.9c10.8,0,19.2,2.2,25.2,6.5,6,4.3,9,10.5,9,18.5s-1.2,9.7-3.7,13.3c-2.5,3.6-5.8,6.3-10,8.2s-8.8,2.8-13.8,2.8l2.4-3.3c6.2,0,11.5.9,16,2.8,4.5,1.9,8,4.7,10.5,8.5,2.5,3.7,3.7,8.4,3.7,13.9,0,8.2-3,14.6-9.1,19.1-6.1,4.5-15.2,6.8-27.4,6.8h-44.7ZM1471,350.8h34.3c8.5,0,15-1.5,19.6-4.4,4.5-2.9,6.8-7.6,6.8-13.9s-2.3-10.9-6.8-13.8c-4.5-2.9-11.1-4.4-19.6-4.4h-35.4v-8.5h32.1c7.8,0,13.8-1.5,18.1-4.4,4.3-3,6.5-7.4,6.5-13.2s-2.2-10.3-6.5-13.3c-4.3-2.9-10.3-4.4-18.1-4.4h-30.9v80.2Z"/>
          <path d="M1565.4,359.2v-97.1h10.3v97.1h-10.3Z"/>
        </g>
      </g>
    </g>
  </g>
</svg>