<svg width="126" height="31" viewBox="0 0 126 31" fill="none" xmlns="http://www.w3.org/2000/svg">
<path d="M22.5788 21.5938C22.6462 21.5938 22.68 21.6613 22.68 21.7963C22.68 21.9313 22.6462 21.9988 22.5788 21.9988C22.1737 21.9988 21.5663 21.9762 20.7563 21.9313C19.8113 21.8863 19.0688 21.8638 18.5287 21.8638C17.9888 21.8638 17.2913 21.8863 16.4363 21.9313C15.6713 21.9762 15.0863 21.9988 14.6812 21.9988C14.5913 21.9988 14.5463 21.9313 14.5463 21.7963C14.5463 21.6613 14.5913 21.5938 14.6812 21.5938C15.4012 21.5938 15.9075 21.5263 16.2 21.3913C16.515 21.2338 16.6725 20.9638 16.6725 20.5813C16.6725 20.2663 16.5487 19.7938 16.3013 19.1638L13.2975 11.6375H7.8975L5.43375 17.6112C5.07375 18.4888 4.89375 19.2088 4.89375 19.7713C4.89375 20.4238 5.13 20.8963 5.6025 21.1888C6.0975 21.4588 6.85125 21.5938 7.86375 21.5938C7.95375 21.5938 7.99875 21.6613 7.99875 21.7963C7.99875 21.9313 7.9425 21.9988 7.83 21.9988C7.5375 21.9988 6.94125 21.9762 6.04125 21.9313C4.96125 21.8863 4.14 21.8638 3.5775 21.8638C3.0375 21.8638 2.4075 21.8863 1.6875 21.9313C1.0575 21.9762 0.54 21.9988 0.135 21.9988C0.045 21.9988 0 21.9313 0 21.7963C0 21.6613 0.045 21.5938 0.135 21.5938C0.81 21.5938 1.53 21.2563 2.295 20.5813C3.0825 19.8838 3.76875 18.8713 4.35375 17.5438L11.5425 0.601251C11.5425 0.53375 11.6325 0.5 11.8125 0.5C12.015 0.5 12.15 0.545 12.2175 0.635L19.5413 19.1638C19.8338 19.8838 20.07 20.4013 20.25 20.7163C20.4525 21.0088 20.7225 21.2338 21.06 21.3913C21.3975 21.5263 21.9037 21.5938 22.5788 21.5938ZM8.235 10.7938H12.96L10.6313 4.92125L8.235 10.7938Z" fill="white"/>
<path d="M65.6358 27.8713C65.7033 27.8713 65.7596 27.9163 65.8046 28.0063C65.8721 28.0963 65.8833 28.1638 65.8383 28.2088C65.1858 29.0413 64.4321 29.66 63.5771 30.065C62.7221 30.4925 61.6871 30.7063 60.4721 30.7063C58.8971 30.7063 57.1646 30.5038 55.2746 30.0988C53.4071 29.7163 51.0221 29.1313 48.1196 28.3438C45.5546 27.6463 43.4621 27.1175 41.8421 26.7575C40.2221 26.42 38.7933 26.2512 37.5558 26.2512C36.4308 26.2512 35.5421 26.4088 34.8896 26.7238L34.8221 26.7575C34.7546 26.7575 34.6758 26.6788 34.5858 26.5213C34.5183 26.3863 34.5183 26.3075 34.5858 26.285L40.9983 21.7963C39.7833 22.2013 38.4896 22.4038 37.1171 22.4038C35.0246 22.4038 33.1683 21.9312 31.5483 20.9862C29.9508 20.0187 28.7133 18.7138 27.8358 17.0713C26.9583 15.4288 26.5196 13.6062 26.5196 11.6037C26.5196 9.51125 27.0146 7.62125 28.0046 5.93375C29.0171 4.24625 30.3896 2.93 32.1221 1.985C33.8546 1.0175 35.7896 0.53375 37.9271 0.53375C40.0421 0.53375 41.9096 0.995 43.5296 1.9175C45.1721 2.84 46.4321 4.11125 47.3096 5.73125C48.2096 7.35125 48.6596 9.15125 48.6596 11.1313C48.6596 13.0888 48.2546 14.855 47.4446 16.43C46.6346 17.9825 45.5096 19.265 44.0696 20.2775L38.0621 24.665C38.6471 24.485 39.2771 24.395 39.9521 24.395C41.1671 24.395 42.4383 24.5413 43.7658 24.8338C45.1158 25.1488 47.0058 25.6438 49.4358 26.3188C52.2033 27.1287 54.5658 27.7363 56.5233 28.1413C58.4808 28.5688 60.4496 28.7825 62.4296 28.7825C63.2396 28.7825 63.8583 28.715 64.2858 28.58C64.7358 28.445 65.1633 28.22 65.5683 27.905L65.6358 27.8713ZM29.8271 9.95C29.8271 11.9975 30.1983 13.91 30.9408 15.6875C31.6833 17.4425 32.7183 18.86 34.0458 19.94C35.3733 20.9975 36.8808 21.5263 38.5683 21.5263C39.9183 21.5263 41.0996 21.1775 42.1121 20.48C43.1471 19.76 43.9346 18.7588 44.4746 17.4762C45.0371 16.1713 45.3183 14.6525 45.3183 12.92C45.3183 10.85 44.9471 8.9375 44.2046 7.1825C43.4846 5.405 42.4608 3.9875 41.1333 2.93C39.8283 1.8725 38.3433 1.34375 36.6783 1.34375C35.3283 1.34375 34.1358 1.6925 33.1008 2.39C32.0658 3.0875 31.2558 4.08875 30.6708 5.39375C30.1083 6.67625 29.8271 8.195 29.8271 9.95Z" fill="white"/>
<path d="M78.001 21.5938C78.0685 21.5938 78.1022 21.6613 78.1022 21.7963C78.1022 21.9313 78.0685 21.9988 78.001 21.9988L74.8285 21.965L72.4997 21.9988C72.2523 21.9988 72.0947 21.965 72.0273 21.8975C71.9822 21.83 71.9597 21.65 71.9597 21.3575V19.6025C70.8122 20.5925 69.676 21.3125 68.551 21.7625C67.4485 22.19 66.2447 22.4038 64.9397 22.4038C63.3872 22.4038 61.9922 22.1338 60.7547 21.5938C59.5172 21.0537 58.5497 20.2775 57.8522 19.265C57.1548 18.2525 56.806 17.0713 56.806 15.7213V3.63875C56.806 2.96375 56.7385 2.46875 56.6035 2.15375C56.491 1.83875 56.266 1.625 55.9285 1.5125C55.6135 1.3775 55.1072 1.31 54.4097 1.31C54.3422 1.31 54.3085 1.2425 54.3085 1.1075C54.3085 0.972501 54.3422 0.905001 54.4097 0.905001L55.996 0.93875C56.941 0.98375 57.7172 1.00625 58.3247 1.00625C58.9322 1.00625 59.731 0.98375 60.721 0.93875L62.341 0.905001C62.431 0.905001 62.476 0.972501 62.476 1.1075C62.4985 1.2425 62.476 1.31 62.4085 1.31C61.6885 1.31 61.1597 1.3775 60.8223 1.5125C60.4847 1.6475 60.2597 1.88375 60.1472 2.22125C60.0347 2.53625 59.9673 3.03125 59.9447 3.70625V14.54C59.9222 16.655 60.451 18.3088 61.531 19.5013C62.611 20.6712 64.1185 21.2563 66.0535 21.2563C67.111 21.2563 68.101 21.065 69.0235 20.6825C69.946 20.3 70.9248 19.6475 71.9597 18.725L71.926 3.70625C71.9485 3.03125 71.8923 2.53625 71.7572 2.22125C71.6448 1.88375 71.4197 1.6475 71.0822 1.5125C70.7448 1.3775 70.2385 1.31 69.5635 1.31C69.496 1.31 69.4622 1.2425 69.4622 1.1075C69.4622 0.972501 69.4847 0.905001 69.5297 0.905001L71.1835 0.93875C72.1285 0.98375 72.9047 1.00625 73.5123 1.00625C74.0748 1.00625 74.851 0.98375 75.841 0.93875L77.4948 0.905001C77.5847 0.905001 77.6297 0.972501 77.6297 1.1075C77.6522 1.2425 77.6297 1.31 77.5622 1.31C76.8422 1.31 76.3135 1.3775 75.976 1.5125C75.6385 1.625 75.4022 1.83875 75.2673 2.15375C75.1547 2.46875 75.0985 2.96375 75.0985 3.63875V19.265C75.0985 19.94 75.166 20.4463 75.301 20.7838C75.436 21.0988 75.706 21.3125 76.111 21.425C76.516 21.5375 77.146 21.5938 78.001 21.5938Z" fill="white"/>
<path d="M104.818 21.5938C104.886 21.5938 104.919 21.6613 104.919 21.7963C104.919 21.9313 104.886 21.9988 104.818 21.9988C104.413 21.9988 103.806 21.9762 102.996 21.9313C102.051 21.8863 101.308 21.8638 100.768 21.8638C100.228 21.8638 99.5305 21.8863 98.6755 21.9313C97.9105 21.9762 97.3255 21.9988 96.9205 21.9988C96.8305 21.9988 96.7855 21.9313 96.7855 21.7963C96.7855 21.6613 96.8305 21.5938 96.9205 21.5938C97.6405 21.5938 98.1468 21.5263 98.4393 21.3913C98.7543 21.2338 98.9118 20.9638 98.9118 20.5813C98.9118 20.2663 98.788 19.7938 98.5405 19.1638L95.5368 11.6375H90.1368L87.673 17.6112C87.313 18.4888 87.133 19.2088 87.133 19.7713C87.133 20.4238 87.3693 20.8963 87.8418 21.1888C88.3368 21.4588 89.0905 21.5938 90.103 21.5938C90.193 21.5938 90.238 21.6613 90.238 21.7963C90.238 21.9313 90.1818 21.9988 90.0693 21.9988C89.7768 21.9988 89.1805 21.9762 88.2805 21.9313C87.2005 21.8863 86.3793 21.8638 85.8168 21.8638C85.2768 21.8638 84.6468 21.8863 83.9268 21.9313C83.2968 21.9762 82.7793 21.9988 82.3743 21.9988C82.2843 21.9988 82.2393 21.9313 82.2393 21.7963C82.2393 21.6613 82.2843 21.5938 82.3743 21.5938C83.0493 21.5938 83.7693 21.2563 84.5343 20.5813C85.3218 19.8838 86.008 18.8713 86.593 17.5438L93.7818 0.601251C93.7818 0.53375 93.8718 0.5 94.0518 0.5C94.2543 0.5 94.3893 0.545 94.4568 0.635L101.781 19.1638C102.073 19.8838 102.309 20.4013 102.489 20.7163C102.692 21.0088 102.962 21.2338 103.299 21.3913C103.637 21.5263 104.143 21.5938 104.818 21.5938ZM90.4743 10.7938H95.1993L92.8705 4.92125L90.4743 10.7938Z" fill="white"/>
<path d="M125.696 0.905001C125.809 0.905001 125.865 0.972501 125.865 1.1075C125.865 1.2425 125.809 1.31 125.696 1.31C124.909 1.31 124.166 1.6025 123.469 2.1875C122.771 2.75 122.074 3.6275 121.376 4.82L117.697 11.5025V19.265C117.72 19.9625 117.787 20.4688 117.9 20.7838C118.035 21.0988 118.282 21.3125 118.642 21.425C119.002 21.5375 119.587 21.5938 120.397 21.5938C120.487 21.5938 120.532 21.6613 120.532 21.7963C120.532 21.9313 120.487 21.9988 120.397 21.9988C119.655 21.9988 119.07 21.9875 118.642 21.965L116.145 21.9313L113.479 21.965C113.051 21.9875 112.477 21.9988 111.757 21.9988C111.667 21.9988 111.622 21.9313 111.622 21.7963C111.622 21.6613 111.667 21.5938 111.757 21.5938C112.567 21.5938 113.164 21.5375 113.546 21.425C113.951 21.29 114.221 21.065 114.356 20.75C114.514 20.435 114.581 19.94 114.559 19.265L114.525 11.8737L109.159 3.70625C108.596 2.85125 108.067 2.24375 107.572 1.88375C107.077 1.50125 106.549 1.31 105.986 1.31C105.896 1.31 105.851 1.2425 105.851 1.1075C105.851 0.972501 105.885 0.905001 105.952 0.905001L107.572 0.93875C108.292 0.98375 108.844 1.00625 109.226 1.00625C109.811 1.00625 110.666 0.98375 111.791 0.93875L113.479 0.905001C113.546 0.905001 113.58 0.95 113.58 1.04C113.58 1.1075 113.557 1.175 113.512 1.2425C113.49 1.2875 113.456 1.31 113.411 1.31C112.309 1.31 111.757 1.50125 111.757 1.88375C111.757 2.08625 111.87 2.345 112.095 2.66L117.225 10.5912L120.6 4.28C120.87 3.7625 121.005 3.29 121.005 2.8625C121.005 2.39 120.836 2.01875 120.499 1.74875C120.161 1.45625 119.689 1.31 119.081 1.31C118.991 1.31 118.946 1.2425 118.946 1.1075C118.946 0.972501 118.98 0.905001 119.047 0.905001L120.769 0.93875C121.804 0.98375 122.625 1.00625 123.232 1.00625C123.615 1.00625 124.054 0.98375 124.549 0.93875L125.696 0.905001Z" fill="white"/>
</svg>
