<svg width="403" height="97" viewBox="0 0 403 97" fill="none" xmlns="http://www.w3.org/2000/svg">
<path d="M72.2518 67.5C72.4678 67.5 72.5758 67.716 72.5758 68.148C72.5758 68.58 72.4678 68.796 72.2518 68.796C70.9558 68.796 69.0118 68.724 66.4198 68.58C63.3958 68.436 61.0198 68.364 59.2918 68.364C57.5638 68.364 55.3318 68.436 52.5958 68.58C50.1478 68.724 48.2758 68.796 46.9798 68.796C46.6918 68.796 46.5478 68.58 46.5478 68.148C46.5478 67.716 46.6918 67.5 46.9798 67.5C49.2838 67.5 50.9038 67.284 51.8398 66.852C52.8478 66.348 53.3518 65.484 53.3518 64.26C53.3518 63.252 52.9558 61.74 52.1638 59.724L42.5518 35.64H25.2718L17.3878 54.756C16.2358 57.564 15.6598 59.868 15.6598 61.668C15.6598 63.756 16.4158 65.268 17.9278 66.204C19.5118 67.068 21.9238 67.5 25.1638 67.5C25.4518 67.5 25.5958 67.716 25.5958 68.148C25.5958 68.58 25.4158 68.796 25.0558 68.796C24.1198 68.796 22.2118 68.724 19.3318 68.58C15.8758 68.436 13.2478 68.364 11.4478 68.364C9.71976 68.364 7.70376 68.436 5.39976 68.58C3.38376 68.724 1.72776 68.796 0.431756 68.796C0.143756 68.796 -0.000244141 68.58 -0.000244141 68.148C-0.000244141 67.716 0.143756 67.5 0.431756 67.5C2.59176 67.5 4.89576 66.42 7.34376 64.26C9.86376 62.028 12.0598 58.788 13.9318 54.54L36.9358 0.324002C36.9358 0.108001 37.2238 0 37.7998 0C38.4478 0 38.8798 0.144 39.0958 0.432001L62.5318 59.724C63.4678 62.028 64.2238 63.684 64.7998 64.692C65.4478 65.628 66.3118 66.348 67.3918 66.852C68.4718 67.284 70.0918 67.5 72.2518 67.5ZM26.3518 32.94H41.4718L34.0198 14.148L26.3518 32.94Z" fill="white"/>
<path d="M210.034 87.588C210.25 87.588 210.43 87.732 210.574 88.02C210.79 88.308 210.826 88.524 210.682 88.668C208.594 91.332 206.182 93.312 203.446 94.608C200.71 95.976 197.398 96.66 193.51 96.66C188.47 96.66 182.926 96.012 176.878 94.716C170.902 93.492 163.27 91.62 153.982 89.1C145.774 86.868 139.078 85.176 133.894 84.024C128.71 82.944 124.138 82.404 120.178 82.404C116.578 82.404 113.734 82.908 111.646 83.916L111.43 84.024C111.214 84.024 110.962 83.772 110.674 83.268C110.458 82.836 110.458 82.584 110.674 82.512L131.194 68.148C127.306 69.444 123.166 70.092 118.774 70.092C112.078 70.092 106.138 68.58 100.954 65.556C95.8424 62.46 91.8824 58.284 89.0744 53.028C86.2664 47.772 84.8624 41.94 84.8624 35.532C84.8624 28.836 86.4464 22.788 89.6144 17.388C92.8544 11.988 97.2464 7.776 102.79 4.752C108.334 1.656 114.526 0.107999 121.366 0.107999C128.134 0.107999 134.11 1.584 139.294 4.536C144.55 7.488 148.582 11.556 151.39 16.74C154.27 21.924 155.71 27.684 155.71 34.02C155.71 40.284 154.414 45.936 151.822 50.976C149.23 55.944 145.63 60.048 141.022 63.288L121.798 77.328C123.67 76.752 125.686 76.464 127.846 76.464C131.734 76.464 135.802 76.932 140.05 77.868C144.37 78.876 150.418 80.46 158.194 82.62C167.05 85.212 174.61 87.156 180.874 88.452C187.138 89.82 193.438 90.504 199.774 90.504C202.366 90.504 204.346 90.288 205.714 89.856C207.154 89.424 208.522 88.704 209.818 87.696L210.034 87.588ZM95.4464 30.24C95.4464 36.792 96.6344 42.912 99.0104 48.6C101.386 54.216 104.698 58.752 108.946 62.208C113.194 65.592 118.018 67.284 123.418 67.284C127.738 67.284 131.518 66.168 134.758 63.936C138.07 61.632 140.59 58.428 142.318 54.324C144.118 50.148 145.018 45.288 145.018 39.744C145.018 33.12 143.83 27 141.454 21.384C139.15 15.696 135.874 11.16 131.626 7.776C127.45 4.392 122.698 2.7 117.37 2.7C113.05 2.7 109.234 3.816 105.922 6.048C102.61 8.28 100.018 11.484 98.1464 15.66C96.3464 19.764 95.4464 24.624 95.4464 30.24Z" fill="white"/>
<path d="M249.603 67.5C249.819 67.5 249.927 67.716 249.927 68.148C249.927 68.58 249.819 68.796 249.603 68.796L239.451 68.688L231.999 68.796C231.207 68.796 230.703 68.688 230.487 68.472C230.343 68.256 230.271 67.68 230.271 66.744V61.128C226.599 64.296 222.963 66.6 219.363 68.04C215.835 69.408 211.983 70.092 207.807 70.092C202.839 70.092 198.375 69.228 194.415 67.5C190.455 65.772 187.359 63.288 185.127 60.048C182.895 56.808 181.779 53.028 181.779 48.708V10.044C181.779 7.884 181.563 6.3 181.131 5.292C180.771 4.284 180.051 3.6 178.971 3.24C177.963 2.808 176.343 2.592 174.111 2.592C173.895 2.592 173.787 2.376 173.787 1.944C173.787 1.512 173.895 1.296 174.111 1.296L179.187 1.404C182.211 1.548 184.695 1.62 186.639 1.62C188.583 1.62 191.139 1.548 194.307 1.404L199.491 1.296C199.779 1.296 199.923 1.512 199.923 1.944C199.995 2.376 199.923 2.592 199.707 2.592C197.403 2.592 195.711 2.808 194.631 3.24C193.551 3.672 192.831 4.428 192.471 5.508C192.111 6.516 191.895 8.1 191.823 10.26V44.928C191.751 51.696 193.443 56.988 196.899 60.804C200.355 64.548 205.179 66.42 211.371 66.42C214.755 66.42 217.923 65.808 220.875 64.584C223.827 63.36 226.959 61.272 230.271 58.32L230.163 10.26C230.235 8.1 230.055 6.516 229.623 5.508C229.263 4.428 228.543 3.672 227.463 3.24C226.383 2.808 224.763 2.592 222.603 2.592C222.387 2.592 222.279 2.376 222.279 1.944C222.279 1.512 222.351 1.296 222.495 1.296L227.787 1.404C230.811 1.548 233.295 1.62 235.239 1.62C237.039 1.62 239.523 1.548 242.691 1.404L247.983 1.296C248.271 1.296 248.415 1.512 248.415 1.944C248.487 2.376 248.415 2.592 248.199 2.592C245.895 2.592 244.203 2.808 243.123 3.24C242.043 3.6 241.287 4.284 240.855 5.292C240.495 6.3 240.315 7.884 240.315 10.044V60.048C240.315 62.208 240.531 63.828 240.963 64.908C241.395 65.916 242.259 66.6 243.555 66.96C244.851 67.32 246.867 67.5 249.603 67.5Z" fill="white"/>
<path d="M335.417 67.5C335.633 67.5 335.741 67.716 335.741 68.148C335.741 68.58 335.633 68.796 335.417 68.796C334.121 68.796 332.177 68.724 329.585 68.58C326.561 68.436 324.185 68.364 322.457 68.364C320.729 68.364 318.497 68.436 315.761 68.58C313.313 68.724 311.441 68.796 310.145 68.796C309.857 68.796 309.713 68.58 309.713 68.148C309.713 67.716 309.857 67.5 310.145 67.5C312.449 67.5 314.069 67.284 315.005 66.852C316.013 66.348 316.517 65.484 316.517 64.26C316.517 63.252 316.121 61.74 315.329 59.724L305.717 35.64H288.437L280.553 54.756C279.401 57.564 278.825 59.868 278.825 61.668C278.825 63.756 279.581 65.268 281.093 66.204C282.677 67.068 285.089 67.5 288.329 67.5C288.617 67.5 288.761 67.716 288.761 68.148C288.761 68.58 288.581 68.796 288.221 68.796C287.285 68.796 285.377 68.724 282.497 68.58C279.041 68.436 276.413 68.364 274.613 68.364C272.885 68.364 270.869 68.436 268.565 68.58C266.549 68.724 264.893 68.796 263.597 68.796C263.309 68.796 263.165 68.58 263.165 68.148C263.165 67.716 263.309 67.5 263.597 67.5C265.757 67.5 268.061 66.42 270.509 64.26C273.029 62.028 275.225 58.788 277.097 54.54L300.101 0.324002C300.101 0.108001 300.389 0 300.965 0C301.613 0 302.045 0.144 302.261 0.432001L325.697 59.724C326.633 62.028 327.389 63.684 327.965 64.692C328.613 65.628 329.477 66.348 330.557 66.852C331.637 67.284 333.257 67.5 335.417 67.5ZM289.517 32.94H304.637L297.185 14.148L289.517 32.94Z" fill="white"/>
<path d="M402.227 1.296C402.587 1.296 402.767 1.512 402.767 1.944C402.767 2.376 402.587 2.592 402.227 2.592C399.707 2.592 397.331 3.528 395.099 5.4C392.867 7.2 390.635 10.008 388.403 13.824L376.631 35.208V60.048C376.703 62.28 376.919 63.9 377.279 64.908C377.711 65.916 378.503 66.6 379.655 66.96C380.807 67.32 382.679 67.5 385.271 67.5C385.559 67.5 385.703 67.716 385.703 68.148C385.703 68.58 385.559 68.796 385.271 68.796C382.895 68.796 381.023 68.76 379.655 68.688L371.663 68.58L363.131 68.688C361.763 68.76 359.927 68.796 357.623 68.796C357.335 68.796 357.191 68.58 357.191 68.148C357.191 67.716 357.335 67.5 357.623 67.5C360.215 67.5 362.123 67.32 363.347 66.96C364.643 66.528 365.507 65.808 365.939 64.8C366.443 63.792 366.659 62.208 366.587 60.048L366.479 36.396L349.307 10.26C347.507 7.524 345.815 5.58 344.231 4.428C342.647 3.204 340.955 2.592 339.155 2.592C338.867 2.592 338.723 2.376 338.723 1.944C338.723 1.512 338.831 1.296 339.047 1.296L344.231 1.404C346.535 1.548 348.299 1.62 349.523 1.62C351.395 1.62 354.131 1.548 357.731 1.404L363.131 1.296C363.347 1.296 363.455 1.44 363.455 1.728C363.455 1.944 363.383 2.16 363.239 2.376C363.167 2.52 363.059 2.592 362.915 2.592C359.387 2.592 357.623 3.204 357.623 4.428C357.623 5.076 357.983 5.904 358.703 6.912L375.119 32.292L385.919 12.096C386.783 10.44 387.215 8.928 387.215 7.56C387.215 6.048 386.675 4.86 385.595 3.996C384.515 3.06 383.003 2.592 381.059 2.592C380.771 2.592 380.627 2.376 380.627 1.944C380.627 1.512 380.735 1.296 380.951 1.296L386.459 1.404C389.771 1.548 392.399 1.62 394.343 1.62C395.567 1.62 396.971 1.548 398.555 1.404L402.227 1.296Z" fill="white"/>
</svg>
