<svg width="228" height="55" viewBox="0 0 228 55" fill="none" xmlns="http://www.w3.org/2000/svg">
<path d="M41.5793 37.9688C41.7007 37.9688 41.7615 38.0903 41.7615 38.3333C41.7615 38.5763 41.7007 38.6978 41.5793 38.6978C40.8503 38.6978 39.7568 38.6572 38.2988 38.5763C36.5978 38.4953 35.2613 38.4548 34.2892 38.4548C33.3172 38.4548 32.0618 38.4953 30.5228 38.5763C29.1458 38.6572 28.0928 38.6978 27.3638 38.6978C27.2017 38.6978 27.1208 38.5763 27.1208 38.3333C27.1208 38.0903 27.2017 37.9688 27.3638 37.9688C28.6597 37.9688 29.571 37.8473 30.0975 37.6043C30.6645 37.3208 30.948 36.8348 30.948 36.1463C30.948 35.5793 30.7253 34.7288 30.2798 33.5948L24.873 20.0475H15.153L10.7183 30.8003C10.0703 32.3797 9.74625 33.6758 9.74625 34.6883C9.74625 35.8628 10.1715 36.7133 11.022 37.2397C11.913 37.7257 13.2698 37.9688 15.0923 37.9688C15.2543 37.9688 15.3353 38.0903 15.3353 38.3333C15.3353 38.5763 15.234 38.6978 15.0315 38.6978C14.505 38.6978 13.4318 38.6572 11.8118 38.5763C9.86775 38.4953 8.3895 38.4548 7.377 38.4548C6.405 38.4548 5.271 38.4953 3.975 38.5763C2.841 38.6572 1.9095 38.6978 1.1805 38.6978C1.0185 38.6978 0.9375 38.5763 0.9375 38.3333C0.9375 38.0903 1.0185 37.9688 1.1805 37.9688C2.3955 37.9688 3.6915 37.3613 5.0685 36.1463C6.486 34.8908 7.72125 33.0682 8.77425 30.6788L21.714 0.182251C21.714 0.0607504 21.876 0 22.2 0C22.5645 0 22.8075 0.0810002 22.929 0.243L36.1118 33.5948C36.6383 34.8908 37.0635 35.8223 37.3875 36.3893C37.752 36.9158 38.238 37.3208 38.8455 37.6043C39.453 37.8473 40.3643 37.9688 41.5793 37.9688ZM15.7605 18.5288H24.2655L20.0737 7.95825L15.7605 18.5288Z" fill="white"/>
<path d="M119.082 49.2683C119.204 49.2683 119.305 49.3493 119.386 49.5113C119.507 49.6733 119.528 49.7948 119.447 49.8758C118.272 51.3743 116.915 52.488 115.376 53.217C113.837 53.9865 111.974 54.3713 109.787 54.3713C106.952 54.3713 103.834 54.0068 100.432 53.2778C97.0703 52.5893 92.7773 51.5363 87.5528 50.1188C82.9358 48.8633 79.1693 47.9115 76.2533 47.2635C73.3373 46.656 70.7655 46.3522 68.538 46.3522C66.513 46.3522 64.9133 46.6357 63.7388 47.2028L63.6173 47.2635C63.4958 47.2635 63.354 47.1218 63.192 46.8383C63.0705 46.5953 63.0705 46.4535 63.192 46.413L74.7345 38.3333C72.5475 39.0623 70.2188 39.4268 67.7483 39.4268C63.9818 39.4268 60.6405 38.5762 57.7245 36.8753C54.849 35.1338 52.6215 32.7848 51.042 29.8283C49.4625 26.8717 48.6728 23.5912 48.6728 19.9867C48.6728 16.2202 49.5638 12.8182 51.3458 9.78075C53.1683 6.74325 55.6388 4.374 58.7573 2.673C61.8758 0.931499 65.3588 0.0607492 69.2063 0.0607492C73.0133 0.0607492 76.3748 0.890999 79.2908 2.5515C82.2473 4.212 84.5153 6.50025 86.0948 9.41625C87.7148 12.3322 88.5248 15.5723 88.5248 19.1362C88.5248 22.6597 87.7958 25.839 86.3378 28.674C84.8798 31.4685 82.8548 33.777 80.2628 35.5995L69.4493 43.497C70.5023 43.173 71.6363 43.011 72.8513 43.011C75.0383 43.011 77.3265 43.2743 79.716 43.8008C82.146 44.3678 85.548 45.2588 89.922 46.4738C94.9035 47.9318 99.156 49.0253 102.68 49.7543C106.203 50.5238 109.747 50.9085 113.311 50.9085C114.769 50.9085 115.883 50.787 116.652 50.544C117.462 50.301 118.232 49.896 118.961 49.329L119.082 49.2683ZM54.6263 17.01C54.6263 20.6955 55.2945 24.138 56.631 27.3375C57.9675 30.4965 59.8305 33.048 62.22 34.992C64.6095 36.8955 67.323 37.8473 70.3605 37.8473C72.7905 37.8473 74.9168 37.2195 76.7393 35.964C78.6023 34.668 80.0198 32.8657 80.9918 30.5573C82.0043 28.2083 82.5105 25.4745 82.5105 22.356C82.5105 18.63 81.8423 15.1875 80.5058 12.0285C79.2098 8.829 77.367 6.2775 74.9775 4.374C72.6285 2.4705 69.9555 1.51875 66.9585 1.51875C64.5285 1.51875 62.382 2.1465 60.519 3.402C58.656 4.6575 57.198 6.45975 56.145 8.80875C55.1325 11.1172 54.6263 13.851 54.6263 17.01Z" fill="white"/>
<path d="M141.339 37.9688C141.461 37.9688 141.522 38.0903 141.522 38.3333C141.522 38.5763 141.461 38.6978 141.339 38.6978L135.629 38.637L131.437 38.6978C130.992 38.6978 130.708 38.637 130.587 38.5155C130.506 38.394 130.465 38.07 130.465 37.5435V34.3845C128.4 36.1665 126.354 37.4625 124.329 38.2725C122.345 39.042 120.178 39.4268 117.829 39.4268C115.035 39.4268 112.524 38.9408 110.296 37.9688C108.069 36.9967 106.327 35.5995 105.072 33.777C103.816 31.9545 103.188 29.8283 103.188 27.3983V5.64975C103.188 4.43475 103.067 3.54375 102.824 2.97675C102.621 2.40975 102.216 2.025 101.609 1.8225C101.042 1.5795 100.131 1.458 98.875 1.458C98.7535 1.458 98.6928 1.3365 98.6928 1.0935C98.6928 0.850501 98.7535 0.729001 98.875 0.729001L101.73 0.789751C103.431 0.87075 104.829 0.911249 105.922 0.911249C107.016 0.911249 108.453 0.87075 110.235 0.789751L113.151 0.729001C113.313 0.729001 113.394 0.850501 113.394 1.0935C113.435 1.3365 113.394 1.458 113.273 1.458C111.977 1.458 111.025 1.5795 110.418 1.8225C109.81 2.0655 109.405 2.49075 109.203 3.09825C109 3.66525 108.879 4.55625 108.838 5.77125V25.272C108.798 29.079 109.749 32.0558 111.693 34.2023C113.637 36.3083 116.351 37.3613 119.834 37.3613C121.737 37.3613 123.519 37.017 125.18 36.3285C126.84 35.64 128.602 34.4655 130.465 32.805L130.404 5.77125C130.445 4.55625 130.344 3.66525 130.101 3.09825C129.898 2.49075 129.493 2.0655 128.886 1.8225C128.278 1.5795 127.367 1.458 126.152 1.458C126.03 1.458 125.97 1.3365 125.97 1.0935C125.97 0.850501 126.01 0.729001 126.091 0.729001L129.068 0.789751C130.769 0.87075 132.166 0.911249 133.26 0.911249C134.272 0.911249 135.669 0.87075 137.451 0.789751L140.428 0.729001C140.59 0.729001 140.671 0.850501 140.671 1.0935C140.712 1.3365 140.671 1.458 140.55 1.458C139.254 1.458 138.302 1.5795 137.694 1.8225C137.087 2.025 136.662 2.40975 136.419 2.97675C136.216 3.54375 136.115 4.43475 136.115 5.64975V33.777C136.115 34.992 136.236 35.9033 136.479 36.5108C136.722 37.0778 137.208 37.4625 137.937 37.665C138.666 37.8675 139.8 37.9688 141.339 37.9688Z" fill="white"/>
<path d="M189.61 37.9688C189.731 37.9688 189.792 38.0903 189.792 38.3333C189.792 38.5763 189.731 38.6978 189.61 38.6978C188.881 38.6978 187.787 38.6572 186.329 38.5763C184.628 38.4953 183.292 38.4548 182.32 38.4548C181.348 38.4548 180.092 38.4953 178.553 38.5763C177.176 38.6572 176.123 38.6978 175.394 38.6978C175.232 38.6978 175.151 38.5763 175.151 38.3333C175.151 38.0903 175.232 37.9688 175.394 37.9688C176.69 37.9688 177.602 37.8473 178.128 37.6043C178.695 37.3208 178.979 36.8348 178.979 36.1463C178.979 35.5793 178.756 34.7288 178.31 33.5948L172.904 20.0475H163.184L158.749 30.8003C158.101 32.3797 157.777 33.6758 157.777 34.6883C157.777 35.8628 158.202 36.7133 159.053 37.2397C159.944 37.7257 161.3 37.9688 163.123 37.9688C163.285 37.9688 163.366 38.0903 163.366 38.3333C163.366 38.5763 163.265 38.6978 163.062 38.6978C162.536 38.6978 161.462 38.6572 159.842 38.5763C157.898 38.4953 156.42 38.4548 155.408 38.4548C154.436 38.4548 153.302 38.4953 152.006 38.5763C150.872 38.6572 149.94 38.6978 149.211 38.6978C149.049 38.6978 148.968 38.5763 148.968 38.3333C148.968 38.0903 149.049 37.9688 149.211 37.9688C150.426 37.9688 151.722 37.3613 153.099 36.1463C154.517 34.8908 155.752 33.0682 156.805 30.6788L169.745 0.182251C169.745 0.0607504 169.907 0 170.231 0C170.595 0 170.838 0.0810002 170.96 0.243L184.142 33.5948C184.669 34.8908 185.094 35.8223 185.418 36.3893C185.783 36.9158 186.269 37.3208 186.876 37.6043C187.484 37.8473 188.395 37.9688 189.61 37.9688ZM163.791 18.5288H172.296L168.104 7.95825L163.791 18.5288Z" fill="white"/>
<path d="M227.19 0.729001C227.393 0.729001 227.494 0.850501 227.494 1.0935C227.494 1.3365 227.393 1.458 227.19 1.458C225.773 1.458 224.436 1.9845 223.181 3.0375C221.925 4.05 220.67 5.6295 219.414 7.776L212.793 19.8045V33.777C212.833 35.0325 212.955 35.9438 213.157 36.5108C213.4 37.0778 213.846 37.4625 214.494 37.665C215.142 37.8675 216.195 37.9688 217.653 37.9688C217.815 37.9688 217.896 38.0903 217.896 38.3333C217.896 38.5763 217.815 38.6978 217.653 38.6978C216.316 38.6978 215.263 38.6775 214.494 38.637L209.998 38.5763L205.199 38.637C204.429 38.6775 203.397 38.6978 202.101 38.6978C201.939 38.6978 201.858 38.5763 201.858 38.3333C201.858 38.0903 201.939 37.9688 202.101 37.9688C203.559 37.9688 204.632 37.8675 205.32 37.665C206.049 37.422 206.535 37.017 206.778 36.45C207.062 35.883 207.183 34.992 207.143 33.777L207.082 20.4727L197.423 5.77125C196.41 4.23225 195.459 3.13875 194.568 2.49075C193.677 1.80225 192.725 1.458 191.712 1.458C191.55 1.458 191.469 1.3365 191.469 1.0935C191.469 0.850501 191.53 0.729001 191.652 0.729001L194.568 0.789751C195.864 0.87075 196.856 0.911249 197.544 0.911249C198.597 0.911249 200.136 0.87075 202.161 0.789751L205.199 0.729001C205.32 0.729001 205.381 0.81 205.381 0.971998C205.381 1.0935 205.341 1.215 205.26 1.3365C205.219 1.4175 205.158 1.458 205.077 1.458C203.093 1.458 202.101 1.80225 202.101 2.49075C202.101 2.85525 202.303 3.321 202.708 3.888L211.942 18.1642L218.017 6.804C218.503 5.8725 218.746 5.022 218.746 4.2525C218.746 3.402 218.442 2.73375 217.835 2.24775C217.227 1.72125 216.377 1.458 215.283 1.458C215.121 1.458 215.04 1.3365 215.04 1.0935C215.04 0.850501 215.101 0.729001 215.223 0.729001L218.321 0.789751C220.184 0.87075 221.662 0.911249 222.756 0.911249C223.444 0.911249 224.234 0.87075 225.125 0.789751L227.19 0.729001Z" fill="white"/>
</svg>
