<svg width="209" height="20" viewBox="0 0 209 20" fill="none" xmlns="http://www.w3.org/2000/svg">
<path d="M4.2 19.44V17.28H2.4V4.8H4.2V2.64H0V19.44H4.2Z" fill="white"/>
<path d="M14.6616 15.12C12.6456 15.12 11.3016 14.448 11.3016 13.44H8.90156C8.90156 15.744 11.2056 17.28 14.6616 17.28C18.4056 17.28 20.4216 15.912 20.4216 13.368C20.4216 10.92 18.7416 9.84 14.7816 9.84C12.5016 9.84 11.5416 9.48 11.5416 8.568C11.5416 7.512 12.6216 6.96 14.6616 6.96C16.5336 6.96 17.7816 7.632 17.7816 8.64H20.1816C20.1816 6.336 17.9736 4.8 14.6616 4.8C11.0616 4.8 9.14156 6.12 9.14156 8.568C9.14156 10.992 10.7736 12 14.5656 12C16.9656 12 18.0216 12.408 18.0216 13.368C18.0216 14.496 16.8456 15.12 14.6616 15.12Z" fill="white"/>
<path d="M25.8234 17.04H35.4234V14.88H28.2234V5.04H25.8234V17.04Z" fill="white"/>
<path d="M45.4884 4.8C41.8884 4.8 39.2484 7.44 39.2484 11.04C39.2484 14.64 41.8884 17.28 45.4884 17.28C49.0884 17.28 51.7284 14.64 51.7284 11.04C51.7284 7.44 49.0884 4.8 45.4884 4.8ZM45.4884 15C43.3284 15 41.7684 13.32 41.7684 11.04C41.7684 8.76 43.3284 7.08 45.4884 7.08C47.6484 7.08 49.2084 8.76 49.2084 11.04C49.2084 13.32 47.6484 15 45.4884 15Z" fill="white"/>
<path d="M57.7515 17.04L58.7355 14.64H65.0715L66.0555 17.04H68.6475L63.7275 5.04H60.1275L55.2075 17.04H57.7515ZM59.6235 12.48L61.7835 7.2H62.0235L64.1835 12.48H59.6235Z" fill="white"/>
<path d="M83.4103 17.04H85.5703V5.04H83.1703V13.32L75.7303 5.04H73.5703V17.04H75.9703V8.76L83.4103 17.04Z" fill="white"/>
<path d="M102.38 5.04H99.9797V17.04H102.38V12.12H109.58V17.04H111.98V5.04H109.58V9.96H102.38V5.04Z" fill="white"/>
<path d="M116.909 17.04H119.453L120.437 14.64H126.773L127.757 17.04H130.349L125.429 5.04H121.829L116.909 17.04ZM125.669 2.04C125.669 0.864 124.805 0 123.629 0C122.453 0 121.589 0.864 121.589 2.04C121.589 3.216 122.453 4.08 123.629 4.08C124.805 4.08 125.669 3.216 125.669 2.04ZM121.325 12.48L123.485 7.2H123.725L125.885 12.48H121.325Z" fill="white"/>
<path d="M144.608 17.04H147.536L141.944 10.056L147.536 5.04H144.128L137.672 10.848V5.04H135.272V17.04H137.672V13.896L140.24 11.592L144.608 17.04Z" fill="white"/>
<path d="M161.891 17.04H164.819L159.227 10.056L164.819 5.04H161.411L154.955 10.848V5.04H152.555V17.04H154.955V13.896L157.523 11.592L161.891 17.04Z" fill="white"/>
<path d="M181.597 7.2V5.04H169.837V17.04H181.597V14.88H172.237V12.12H179.197V9.96H172.237V7.2H181.597Z" fill="white"/>
<path d="M197.077 17.04H199.238V5.04H196.838V13.32L189.398 5.04H187.238V17.04H189.637V8.76L197.077 17.04Z" fill="white"/>
<path d="M204.527 2.64V4.8H206.351L206.327 17.28H204.527L204.551 19.44H208.727V2.64H204.527Z" fill="white"/>
</svg>
