<svg width="120" height="49" viewBox="0 0 120 49" fill="none" xmlns="http://www.w3.org/2000/svg">
<path d="M12.312 5.24H10.344L6.192 15.344L2.016 5.24H0L5.328 17.24H6.984L12.312 5.24Z" fill="#233429"/>
<path d="M21.5916 5C18.7596 5 16.9116 6.464 16.5516 8.792H18.3276C18.6396 7.424 19.5516 6.416 21.5916 6.416C23.5356 6.416 24.4236 7.088 24.4236 8.984V10.208C17.5836 11.768 16.3596 13.88 16.3836 17.24H18.0636C18.0636 14.912 18.8316 13.256 24.4236 11.744V17.24H26.1036V8.864C26.1036 6.056 23.9916 5 21.5916 5Z" fill="#233429"/>
<path d="M41.9831 5.24H31.7111V17.24H33.3911V6.8H40.3031V17.24H41.9831V5.24Z" fill="#233429"/>
<path d="M51.9587 13.328L51.9827 6.776H58.1267V5.216H51.9827V0.440002H50.3027V5.216H46.0307V6.776H50.3027L50.2787 13.328C50.2787 16.592 51.3347 17.984 58.3187 17.24V15.656C52.6067 16.304 51.9587 15.56 51.9587 13.328Z" fill="#233429"/>
<path d="M67.6462 5C64.8142 5 62.9663 6.464 62.6063 8.792H64.3822C64.6942 7.424 65.6062 6.416 67.6462 6.416C69.5902 6.416 70.4782 7.088 70.4782 8.984V10.208C63.6382 11.768 62.4143 13.88 62.4383 17.24H64.1182C64.1182 14.912 64.8862 13.256 70.4782 11.744V17.24H72.1582V8.864C72.1582 6.056 70.0462 5 67.6462 5Z" fill="#233429"/>
<path d="M76.8298 11.24C76.8298 14.792 79.2298 17.48 82.7578 17.48C84.7738 17.48 86.1178 16.64 87.0298 15.44L87.0538 17.792C87.0778 20.792 85.4458 21.8 82.9498 21.8C81.4618 21.8 79.6378 21.512 79.1098 19.256H77.0938C77.7898 22.208 80.3818 23.24 82.9498 23.24C87.3178 23.24 88.7338 20.288 88.7338 17.792V5.24H87.0538V7.088C85.9738 5.6 84.4378 5 82.7578 5C79.2298 5 76.8298 7.712 76.8298 11.24ZM78.5338 11.24C78.5338 8.576 80.0938 6.584 82.7578 6.584C85.4458 6.584 87.0538 8.552 87.0538 11.24C87.0538 14.048 85.3498 15.896 82.7578 15.896C80.0698 15.896 78.5338 13.832 78.5338 11.24Z" fill="#233429"/>
<path d="M92.2054 11.24C92.2054 14.768 94.7734 17.48 98.3254 17.48C102.141 17.48 104.301 14.84 104.301 11.24C104.301 7.616 101.853 5 98.3254 5C94.7974 5 92.2054 7.712 92.2054 11.24ZM93.9094 10.52C94.1974 8.192 95.9254 6.56 98.3254 6.56C100.797 6.56 102.429 8.12 102.693 10.52H93.9094ZM93.9094 11.984H102.717C102.549 14.432 100.869 15.92 98.3254 15.92C95.9014 15.92 94.1974 14.312 93.9094 11.984Z" fill="#233429"/>
<path d="M6.624 31C4.56 31 3.408 31.792 2.376 33.064V31.24H0.696V48.76H2.376V41.416C3.288 42.616 4.584 43.48 6.624 43.48C10.152 43.48 12.528 40.792 12.528 37.24C12.528 33.712 10.152 31 6.624 31ZM6.624 32.584C9.288 32.584 10.824 34.576 10.824 37.24C10.824 39.832 9.312 41.896 6.624 41.896C4.032 41.896 2.376 40.048 2.376 37.24C2.376 34.552 3.936 32.584 6.624 32.584Z" fill="#233429"/>
<path d="M27.5676 32.92V31.24C23.4876 30.4 20.8956 32.248 19.9596 35.152L20.0556 31.24H18.3756L18.3996 43.24H20.0796L20.0556 37.504C20.0556 35.248 22.7196 31.888 27.5676 32.92Z" fill="#233429"/>
<path d="M36.8711 31C33.3431 31 30.7751 33.712 30.7751 37.24C30.7751 40.768 33.3191 43.48 36.8711 43.48C40.3991 43.48 42.9191 40.768 42.9191 37.24C42.9191 33.688 40.3991 31 36.8711 31ZM36.8711 32.56C39.5591 32.56 41.2391 34.624 41.2391 37.24C41.2391 39.928 39.5351 41.92 36.8711 41.92C34.1831 41.92 32.4311 39.952 32.4311 37.24C32.4311 34.552 34.2071 32.56 36.8711 32.56Z" fill="#233429"/>
<path d="M52.6787 31C50.6147 31 49.4627 31.792 48.4307 33.064V31.24H46.7507V48.76H48.4307V41.416C49.3427 42.616 50.6387 43.48 52.6787 43.48C56.2067 43.48 58.5827 40.792 58.5827 37.24C58.5827 33.712 56.2067 31 52.6787 31ZM52.6787 32.584C55.3427 32.584 56.8787 34.576 56.8787 37.24C56.8787 39.832 55.3667 41.896 52.6787 41.896C50.0867 41.896 48.4307 40.048 48.4307 37.24C48.4307 34.552 49.9907 32.584 52.6787 32.584Z" fill="#233429"/>
<path d="M61.5023 37.24C61.5023 40.768 64.0703 43.48 67.6223 43.48C71.4383 43.48 73.5983 40.84 73.5983 37.24C73.5983 33.616 71.1503 31 67.6223 31C64.0943 31 61.5023 33.712 61.5023 37.24ZM63.2062 36.52C63.4942 34.192 65.2223 32.56 67.6223 32.56C70.0943 32.56 71.7263 34.12 71.9902 36.52H63.2062ZM63.2062 37.984H72.0143C71.8463 40.432 70.1663 41.92 67.6223 41.92C65.1983 41.92 63.4942 40.312 63.2062 37.984Z" fill="#233429"/>
<path d="M88.9738 32.92V31.24C84.8938 30.4 82.3018 32.248 81.3658 35.152L81.4618 31.24H79.7818L79.8058 43.24H81.4858L81.4618 37.504C81.4618 35.248 84.1258 31.888 88.9738 32.92Z" fill="#233429"/>
<path d="M98.0134 39.328L98.0374 32.776H104.181V31.216H98.0374V26.44H96.3574V31.216H92.0854V32.776H96.3574L96.3334 39.328C96.3334 42.592 97.3894 43.984 104.373 43.24V41.656C98.6614 42.304 98.0134 41.56 98.0134 39.328Z" fill="#233429"/>
<path d="M107.005 31.24L112.597 43.168L109.813 48.76H111.709L119.965 31.24H117.973L113.509 41.272L109.045 31.24H107.005Z" fill="#233429"/>
</svg>
